<?xml version="1.0" encoding="utf-8"?>
<!-- Generator: Adobe Illustrator 21.1.0, SVG Export Plug-In . SVG Version: 6.00 Build 0)  -->
<svg version="1.1" id="Layer_1" xmlns="http://www.w3.org/2000/svg" xmlns:xlink="http://www.w3.org/1999/xlink" x="0px" y="0px"
	 viewBox="0 0 624.3 376.6" style="enable-background:new 0 0 624.3 376.6;" xml:space="preserve">
<style type="text/css">
	.st0{fill:#6E80AD;}
	.st1{fill:#B9C0D9;}
	.st2{fill:#003976;}
</style>
<rect x="167" class="st0" width="138.5" height="136.9"/>
<rect x="325.5" class="st1" width="292.8" height="136.9"/>
<rect x="8.4" class="st2" width="138.5" height="136.9"/>
<rect x="8.4" y="263.2" class="st1" width="610.8" height="15.1"/>
<path class="st2" d="M21,216.7v-43.9h-8.4v43c0,10.3-4.9,15.8-13.5,17.3l5.5,5.5C12,237.3,21,230.5,21,216.7"/>
<path class="st2" d="M64.7,208.2c0,8.1-6,13.5-12.8,13.5c-6.9,0-12.9-5.4-12.9-13.5c0-8.1,6-13.5,12.9-13.5
	C58.7,194.6,64.7,200,64.7,208.2 M72.7,208.2c0-12.1-9.1-20.4-20.8-20.4c-11.7,0-20.9,8.3-20.9,20.4c0,12,9.2,20.3,20.9,20.3
	C63.6,228.5,72.7,220.2,72.7,208.2"/>
<path class="st2" d="M115.3,227.5v-25.7c0-8.7-6.3-14.1-14.9-14.1c-5.7,0-8.7,1.4-11.5,4.1v-25.4h-7.9v61h7.9v-24.9
	c0-4,3.1-8.1,9.5-8.1c6.6,0,9.1,4.1,9.1,8.1v24.9H115.3z"/>
<path class="st2" d="M159.2,227.5v-25.7c0-8.7-6.3-14.1-14.9-14.1c-6.2,0-9.1,1.5-12.1,4.8l-0.3-3.9h-6.9v38.8h7.9v-24.9
	c0-4,3.1-8.1,9.5-8.1c6.6,0,9.1,4.1,9.1,8.1v24.9H159.2z"/>
<rect x="190.9" y="172.9" class="st2" width="8.4" height="54.7"/>
<path class="st2" d="M245.3,227.5v-25.7c0-8.7-6.3-14.1-14.9-14.1c-6.2,0-9.1,1.5-12.1,4.8l-0.3-3.9H211v38.8h7.9v-24.9
	c0-4,3.1-8.1,9.5-8.1c6.6,0,9.1,4.1,9.1,8.1v24.9H245.3z"/>
<path class="st2" d="M289.2,227.5v-25.7c0-8.7-6.3-14.1-14.9-14.1c-6.2,0-9.1,1.5-12.1,4.8l-0.3-3.9h-6.9v38.8h7.9v-24.9
	c0-4,3.1-8.1,9.5-8.1c6.6,0,9.1,4.1,9.1,8.1v24.9H289.2z"/>
<path class="st2" d="M325.6,202.7c0,0.3,0,0.7-0.1,1h-19.8c1-5.4,6.3-9.3,11.3-9.3C322.2,194.5,325.6,198.8,325.6,202.7
	 M333.6,202.5c0-7.2-6.2-14.7-17-14.7c-9.1,0-19.5,7.2-19.5,20.4c0,12.1,9.9,20.3,21.1,20.3c5.3,0,8.9-1,11.6-2.5l2-8.3
	c-3.6,2.6-7.6,3.9-12.6,3.9c-9.2,0-13.7-6.8-14-11.6h23.7l4.4-4.4C333.5,204.8,333.6,203.7,333.6,202.5"/>
<path class="st2" d="M366.1,216.9c0-6.8-4.4-10.3-12.3-13.1c-3.9-1.4-5.7-2.7-5.7-5.1c0-2.6,2.2-4.4,5.5-4.4c4.3,0,7.1,1.3,8.9,2.5
	l1.5-6.5c-1.5-0.9-5.7-2.5-10.2-2.5c-7.8,0-13.2,4.6-13.2,11.1c0,6.3,4.3,9.9,12.1,12.7c3.6,1.3,5.6,2.9,5.6,5.7
	c0,2.7-2.5,4.6-6.2,4.6c-4.8,0-9.8-2.1-13-4.8l1.8,8.6c2.3,1.5,6.4,2.8,11,2.8C361.3,228.5,366.1,223.2,366.1,216.9"/>
<path class="st2" d="M438.7,175.3c-3.4-1.9-8.7-3.6-16.3-3.6c-13.8,0-29.8,9.5-29.8,28.5c0,18.7,15.9,28.4,29.8,28.4
	c7.1,0,11-0.9,14.5-2.7l1.7-8c-3.5,2.1-8.7,3.4-15.3,3.4c-11.1,0-22.3-7-22.3-21.2c0-14.3,11.4-21.3,22.3-21.3
	c5.7,0,11.2,1.9,13.9,3.6L438.7,175.3z"/>
<path class="st2" d="M472,202.7c0,0.3,0,0.7-0.1,1h-19.8c1-5.4,6.3-9.3,11.3-9.3C468.6,194.5,472,198.8,472,202.7 M480,202.5
	c0-7.2-6.2-14.7-17-14.7c-9.1,0-19.5,7.2-19.5,20.4c0,12.1,9.9,20.3,21.1,20.3c5.3,0,8.9-1,11.6-2.5l2-8.3
	c-3.6,2.6-7.6,3.9-12.6,3.9c-9.2,0-13.7-6.8-14-11.6h23.7l4.4-4.4C479.9,204.8,480,203.7,480,202.5"/>
<path class="st2" d="M522.2,227.5v-25.7c0-8.7-6.3-14.1-14.9-14.1c-6.2,0-9.1,1.5-12.1,4.8l-0.3-3.9h-6.9v38.8h7.9v-24.9
	c0-4,3.1-8.1,9.5-8.1c6.6,0,9.1,4.1,9.1,8.1v24.9H522.2z"/>
<path class="st2" d="M557.1,188.7h-13.9v-11.9l-7.8,4v7.9h-7.7v6.3h7.7v21.3c0,7.7,5.7,11.8,12.8,11.8c1.6,0,2.7-0.1,3.6-0.3
	l1.6-6.9c-1.2,0.4-2.7,0.6-4.3,0.6c-3.2,0-5.8-1.7-5.8-4.9V195h12.5L557.1,188.7z"/>
<path class="st2" d="M586.4,194.8l-1.5-6.6c-5.9,0-11.3,1.8-13.4,6.6l-0.3-6.1h-7.5v38.8h7.9v-18.3c0-11.1,7.6-14.4,14-14.4H586.4z"
	/>
<path class="st2" d="M616.3,202.7c0,0.3,0,0.7-0.1,1h-19.8c1-5.4,6.3-9.3,11.3-9.3C612.9,194.5,616.3,198.8,616.3,202.7
	 M624.3,202.5c0-7.2-6.2-14.7-17-14.7c-9.1,0-19.5,7.2-19.5,20.4c0,12.1,9.9,20.3,21.1,20.3c5.3,0,8.9-1,11.6-2.5l2-8.3
	c-3.6,2.6-7.5,3.9-12.6,3.9c-9.2,0-13.7-6.8-14-11.6h23.7l4.4-4.4C624.2,204.8,624.3,203.7,624.3,202.5"/>
<path class="st2" d="M622,329.4c0-0.3,0.1-0.6,0.1-0.9c0-1.2-0.1-2.2-0.3-3.2c-0.2-1-0.5-1.5-0.8-1.6c-0.3-0.1-0.6-0.2-0.8-0.2
	c-0.5,0-1,0.5-1.5,1.5c-0.3,0.6-0.5,1-0.7,1.2c-2.2,2.6-4,4.6-5.3,6.1c-3.1,3.5-5,5.1-5.4,4.7c-0.1-0.1-0.2-0.5-0.2-1.1
	c0-1.2,0.4-3.7,1.2-7.5c0.8-3.9,1.1-5.9,1.1-6.2c0-0.4-0.3-0.9-0.8-1.2c-0.6-0.4-1-0.5-1.3-0.4c-0.7,0.2-1.1,1-1.4,2.4
	c0,0.1-0.1,1-0.3,2.9c-0.8,5.4-1.2,8.2-1.2,8.3c-0.2,1.6-0.3,2.9-0.3,4.1c0,2.5,0.5,3.8,1.6,3.8c1,0,2.7-1.1,4.9-3.2
	c1.5-1.4,3.3-3.4,5.6-6c0.9-1.1,1.7-2.1,2.6-3.1c0,3.8-0.2,7.3-0.5,10.5c-0.3,3.2-0.6,6.5-0.9,9.7c-1.2,11.8-2,17.8-2.4,17.9
	c-0.3,0.1-0.5,0.7-0.5,1.7c0,0.5,0.2,1,0.5,1.3c0.4,0.4,1,0.5,1.8,0.5c0.7,0,1.3-0.1,1.5-0.4c0.3-0.3,0.4-0.6,0.4-1.1
	c0-0.3-0.1-0.8-0.3-1.3c-0.2-0.5-0.4-0.8-0.5-1c-0.1-0.1,0-1.2,0.3-3.2c0.5-3.4,0.9-6.3,1.1-8.8c0.6-4.7,1.1-9.7,1.6-15
	c0.3-3.2,0.6-6.6,1-10.3C621.9,330,621.9,329.7,622,329.4 M605,320c-0.6-0.2-1.4-0.3-2.4-0.3c-1.9,0-4,0.1-6.2,0.3
	c-0.7,0.1-1.6,0.2-2.7,0.3c0.1-0.5,0.3-1.8,0.7-4.1c0.2-1.2,0.3-2.4,0.5-3.7c0.1-1.3,0.2-2.3,0.2-3.1c0-1.5-0.2-2.5-0.5-3.1
	c-0.3-0.6-0.7-0.9-1.3-0.9c-0.5,0-0.9,0.2-1,0.6c-0.2,0.4-0.2,1-0.2,1.7c0,0.1,0,0.5,0.1,1c0,0.5,0.1,0.9,0.1,1.1
	c0,2.7-0.2,5.4-0.7,8c-0.1,0.9-0.4,1.9-0.7,3.1c-1.7,0.4-2.9,0.8-3.5,1c-0.6,0.2-1.9,0.7-3.8,1.4c-1.5,0.6-2.4,1-2.8,1.4
	c-0.3,0.2-0.5,0.6-0.7,1.1c-0.1,0.5,0,0.9,0.3,1.2c0.3,0.4,0.8,0.6,1.4,0.8c0.2,0,0.8-0.3,1.7-1c0.7-0.5,1.4-0.9,2.1-1.2
	c1-0.4,2-0.8,3.1-1.2c0.4-0.1,1-0.2,1.6-0.4c-0.1,1-0.3,2.3-0.4,3.7c-0.2,1.4-0.3,2.7-0.4,3.9c-0.3,2.8-0.5,4.9-0.5,6.3
	c-0.1,1.4-0.1,3.3-0.1,5.4c0,0.9,0.2,1.7,0.5,2.2c0.3,0.6,0.8,0.8,1.4,0.8c0.6,0,1-0.1,1.2-0.4c0.2-0.3,0.3-0.6,0.3-1
	c0-0.2,0-0.5-0.1-0.9c-0.1-0.4-0.1-0.7-0.1-0.7c0-1.9,0.1-4.4,0.3-7.7c0.2-3.3,0.4-6.2,0.6-8.8c0.1-1.2,0.2-2.3,0.3-3.5
	c1.5-0.3,2.9-0.6,4.2-0.8c1.9-0.3,3.7-0.4,5.2-0.4c0.3,0,0.5,0.1,0.9,0.1c0.3,0,0.6,0.1,1,0.1c0.4,0,0.8-0.1,1-0.3
	c0.2-0.2,0.4-0.5,0.4-0.9C606,320.6,605.7,320.2,605,320 M575.3,322.2c-0.9,0-1.4,0.5-1.5,1.5c-0.2,1-0.3,2.6-0.3,4.9
	c0,1.5-0.1,3.9-0.2,7.4c-0.2,3.5-0.2,5.4-0.2,5.6c0,0.3,0,0.7,0.1,1.4c0.1,0.7,0.2,1.1,0.5,1.3c0.4,0.3,0.8,0.5,1.4,0.5
	c0.8,0,1.2-0.3,1.3-0.8c0.1-0.5,0.2-0.8,0.2-1.2c-0.2-0.6-0.4-1.2-0.5-1.9c-0.1-0.7-0.2-1.5-0.2-2.7c0-0.8,0.2-3.2,0.7-7.1
	c0.4-3.9,0.7-6,0.7-6.4C577.1,323.1,576.5,322.2,575.3,322.2 M576.9,304.6c-0.3-0.3-0.6-0.5-1.1-0.5c-0.6,0-1,0.3-1.2,0.8
	c-0.2,0.5-0.5,1.5-1,2.9c-0.6,1.3-1,2.5-1,3.7c0,0.9,0.1,1.4,0.4,1.7c0.2,0.2,0.4,0.2,0.5,0.2c0.4,0,0.8-0.2,1.1-0.6
	c0.2-0.2,0.4-0.7,0.5-1.5c0.1-0.8,0.3-1.4,0.5-2c0.2-0.5,0.5-1.2,1-2c0.4-0.8,0.6-1.3,0.6-1.6C577.3,305.4,577.2,304.9,576.9,304.6
	 M567.5,317.3c-0.4-0.2-0.9-0.5-1.6-1c-0.1,0-0.2-0.1-0.4-0.2c-0.2,0-0.5-0.1-0.9-0.1c-0.5,0-0.9,0.1-1.3,0.2
	c-0.4,0.1-0.7,0.3-1,0.6c-3.2,2.6-5.5,4.6-6.8,6.1c-2.7,3-4,5.8-4,8.4c0,0.4,0,0.7,0.1,1c0.2,2.1,1.5,3.9,3.9,5.2
	c1.1,0.6,3.2,1.4,6.2,2.4c2.2,0.7,3.4,1.4,3.5,2.1c0.1,0.8-1.2,1.9-4,3.2c-1.4,0.7-2.9,1.4-4.5,2.1c-0.2,0.3-0.3,0.6-0.3,0.8
	c0,0.4,0.2,0.8,0.6,1.1c0.4,0.3,0.9,0.4,1.4,0.4c0.6,0.1,2.3-0.9,5.3-2.8c3.2-2.1,4.8-3.7,4.8-4.8c0-1.3-0.7-2.3-2.1-3.1
	c-1.5-0.6-3.1-1.2-4.6-1.8c-3-1.1-4.6-1.7-4.9-1.9c-1.4-0.8-2.2-1.9-2.5-3.5c-0.1-0.9,0.1-2.1,0.8-3.7c0.7-1.5,1.7-2.9,3-4
	c1.3-1.2,2.5-2.3,3.8-3.5c1.2-1.2,2.3-1.7,3.3-1.7c0.1,0,0.4,0.1,0.8,0.3c0.5,0.2,0.9,0.3,1.3,0.3c0.9,0,1.3-0.4,1.2-1.2
	C568.6,318.2,568.2,317.8,567.5,317.3 M550.9,321c-0.3,0-0.7-0.1-1.2-0.1c-1.5,0-2.9,0.5-4.4,1.6c-0.6,0.5-1.7,1.4-3.3,2.9
	c-1.6,1.5-3.3,3.3-5.2,5.6c-0.6,0.7-1.4,1.7-2.4,3l-0.1-6.8c0-1.6-0.1-2.8-0.3-3.7c-0.2-0.8-0.4-1.5-0.8-1.8
	c-0.4-0.4-0.8-0.6-1.2-0.6c-0.3,0-0.7,0.1-1.1,0.4c-0.2,0.1-0.4,0.4-0.6,0.6c0.2,1.3,0.4,2.9,0.6,4.6c0.2,1.8,0.4,4.6,0.4,8.3
	c0,1.4-0.1,2.8-0.3,4.3c-0.2,1.5-0.4,3.1-0.6,4.8c0,0.6,0.1,1.1,0.4,1.3c0.4,0.5,1,0.7,1.5,0.7c0.5,0,0.9-0.2,1.2-0.6
	c0.1-0.2,0.3-1.3,0.6-3.4c0.2-2.1,0.7-3.8,1.5-5c2.2-3.3,4.3-6,6.1-8c2.1-2.3,4-4,5.7-4.9c0.5-0.3,1-0.4,1.5-0.4
	c0.3,0,0.7,0.1,1.2,0.3c0.5,0.2,1,0.2,1.3,0.2c0.9-0.3,1.3-0.7,1.3-1.4c0-0.3-0.1-0.6-0.3-0.9c-0.2-0.3-0.4-0.5-0.5-0.5
	C551.6,321.1,551.2,321,550.9,321 M513.5,327.4c-0.9,0.6-2.3,1.2-4,1.8c-0.6,0.2-1.3,0.4-2.4,0.6c0.6-0.6,1-1.1,1.3-1.4
	c1.1-1,2.1-1.8,3-2.2c1.5-0.8,2.9-1.3,4.3-1.5c0.5-0.1,1.1-0.1,1.8-0.1C516.3,325.5,514.9,326.5,513.5,327.4 M527.2,332.6
	c-0.4,0-0.8,0.3-1.2,0.8c-0.2,0.2-0.4,0.6-0.7,1.2c-0.6,0.8-2.4,2.2-5.3,4.3c-3.6,2.4-6.3,3.7-8.2,3.7c-1.1,0-2.1-0.3-2.8-0.8
	c-0.7-0.5-1.4-1.2-1.9-2.2c-0.6-0.8-0.9-1.6-1.1-2.4c-0.2-0.8-0.3-1.5-0.3-2.2c0-0.4,0.1-0.9,0.2-1.5c0-0.2,0-0.3,0.1-0.5
	c2.3-0.7,3.5-1.1,3.7-1.2c2.2-0.7,3.8-1.4,4.9-2c2.1-1.2,4-2.5,5.8-3.9c0.7-0.8,1.5-1.7,2.2-2.5c-1.4-1-3.1-1.5-5.2-1.5
	c-3.2,0-6.4,1-9.4,3.1c-3.1,2.1-4.9,4.6-5.5,7.6c-0.1,0.6-0.2,0.9-0.2,1c0,0.3,0,0.7,0,1c0,2.1,0.6,4.2,1.8,6.1
	c1.2,1.9,2.7,3.3,4.5,4.2c0.7,0.3,1.6,0.5,2.5,0.5c2.1,0,4.7-0.9,7.8-2.7c2.8-1.7,5.8-3.7,8.8-6.2c0.9-0.6,1.3-1.3,1.3-2.1
	c0-0.6-0.3-1.1-0.8-1.5C527.7,332.7,527.4,332.6,527.2,332.6 M501.6,316.9c-0.4,0-0.8,0.3-1.2,0.8c-0.4,0.5-0.8,1.2-1.1,2
	c0,0.2-1,1.5-2.8,3.9c-1.8,2.4-3.6,4.8-5.4,7.2c-1.4,1.9-3,4.1-4.7,6.7c-0.6,0.8-1.3,1.8-2.1,3c-0.3-1.1-0.6-2.1-0.8-2.8
	c0-0.3-0.1-0.7-0.3-1.2c-0.3-1.3-0.6-2.4-0.7-3.3c-0.4-2.2-0.6-3.5-0.8-4c-0.4-1.3-0.9-2.4-1.5-3.2c-0.6-0.8-1.2-1.2-1.9-1.2
	c-0.3,0-0.6,0.1-0.8,0.3c-0.1,0.1-0.2,0.4-0.2,0.7c0,0.5,0.2,1.3,0.5,2.2c0.1,0.4,0.4,1.1,0.8,2.2c0.1,0.5,0.4,1.5,0.8,2.9
	c1.1,4.6,1.9,7.5,2.2,8.7c0.3,1.2,0.5,1.9,0.6,1.9c0.3,0.9,0.7,1.4,1.2,1.7c0.3,0.1,0.5,0.2,0.8,0.2c0.6,0,1.2-0.4,1.8-1.1
	c0.4-0.5,0.7-1.1,1.1-2c0.6-1.3,2.5-4.4,5.8-9.3c3.6-5.2,5.9-8.3,7.1-9.3c0.9-0.8,1.6-1.6,2.2-2.5c0.6-0.9,0.9-1.8,0.9-2.6
	c0-0.6-0.2-1.1-0.6-1.6C502.2,317.1,501.9,316.9,501.6,316.9 M472.9,322.2c-0.9,0-1.4,0.5-1.5,1.5c-0.2,1-0.3,2.6-0.3,4.9
	c0,1.5-0.1,3.9-0.2,7.4c-0.1,3.5-0.2,5.4-0.2,5.6c0,0.3,0,0.7,0.1,1.4c0.1,0.7,0.2,1.1,0.4,1.3c0.4,0.3,0.8,0.5,1.4,0.5
	c0.8,0,1.2-0.3,1.4-0.8c0.1-0.5,0.2-0.8,0.2-1.2c-0.2-0.6-0.4-1.2-0.5-1.9c-0.2-0.7-0.2-1.5-0.2-2.7c0-0.8,0.2-3.2,0.7-7.1
	c0.4-3.9,0.7-6,0.7-6.4C474.7,323.1,474.1,322.2,472.9,322.2 M474.5,304.6c-0.3-0.3-0.6-0.5-1.1-0.5c-0.6,0-1,0.3-1.2,0.8
	c-0.2,0.5-0.5,1.5-1,2.9c-0.6,1.3-1,2.5-1,3.7c0,0.9,0.1,1.4,0.4,1.7c0.2,0.2,0.4,0.2,0.5,0.2c0.4,0,0.8-0.2,1.1-0.6
	c0.2-0.2,0.4-0.7,0.5-1.5c0.1-0.8,0.3-1.4,0.5-2c0.2-0.5,0.5-1.2,1-2c0.4-0.8,0.6-1.3,0.6-1.6C474.9,305.4,474.8,304.9,474.5,304.6
	 M456.9,330.3c-3.3,2.8-7.2,5.5-11.6,8.3c-3.8,2.3-5.8,3.5-6,3.5c-0.3-1.6-0.4-2.9-0.5-3.9c-0.3-3-0.5-5.8-0.5-8.5
	c0-2.4,0.1-4.8,0.3-7.3c0.2-2.5,0.7-6.9,1.4-13.3c0.4-0.1,0.7-0.2,1.1-0.3c1.1-0.2,2.4-0.3,4-0.3c4.5,0,8.8,1,12.9,2.9
	c4.6,2.1,6.9,4.7,6.9,7.8c0,0.5-0.1,1-0.2,1.5C464,323.4,461.4,326.6,456.9,330.3 M460.7,309.6c-5.1-2.6-10.8-3.8-17.3-3.8
	c-2.5,0-5,0.3-7.5,0.8c-2.5,0.5-4.3,1.2-5.4,1.8c-0.5,0.3-0.7,0.7-0.7,1.2c0,0.5,0.2,1,0.7,1.4c0.5,0.4,1,0.6,1.5,0.5l4.2-1.5
	l-1,16.6c0,1.7,0.1,5.2,0.3,10.3c0,1.5,0.1,3.6,0.3,6.2l-0.4,1.4c-0.1,0.4-0.1,0.7-0.1,0.8c0,0.9,0.2,1.5,0.6,1.9
	c0.2,0,0.5,0,0.7,0.1c0.2,0.1,0.4,0.2,0.7,0.4c1,0,1.8-0.2,2.1-0.7c0.4-0.5,0.5-1.1,0.4-1.7c5.5-3.3,9.4-5.8,11.7-7.3
	c5-3.4,8.9-6.4,11.5-9.2c3.4-3.6,5.1-6.8,5.1-9.8C468.3,315.3,465.8,312.2,460.7,309.6 M402.2,317.3c-0.4-0.2-0.9-0.5-1.6-1
	c-0.1,0-0.2-0.1-0.4-0.2c-0.2,0-0.5-0.1-0.9-0.1c-0.4,0-0.9,0.1-1.3,0.2c-0.4,0.1-0.7,0.3-1,0.6c-3.2,2.6-5.5,4.6-6.8,6.1
	c-2.7,3-4,5.8-4,8.4c0,0.4,0,0.7,0.1,1c0.2,2.1,1.5,3.9,3.9,5.2c1.1,0.6,3.2,1.4,6.2,2.4c2.2,0.7,3.4,1.4,3.5,2.1
	c0.1,0.8-1.2,1.9-4,3.2c-1.4,0.7-2.9,1.4-4.5,2.1c-0.2,0.3-0.3,0.6-0.3,0.8c0,0.4,0.2,0.8,0.6,1.1c0.4,0.3,0.9,0.4,1.4,0.4
	c0.6,0.1,2.3-0.9,5.3-2.8c3.2-2.1,4.8-3.7,4.8-4.8c0-1.3-0.7-2.3-2.1-3.1c-1.5-0.6-3.1-1.2-4.6-1.8c-3-1.1-4.6-1.7-4.9-1.9
	c-1.4-0.8-2.2-1.9-2.5-3.5c-0.2-0.9,0.1-2.1,0.8-3.7c0.7-1.5,1.7-2.9,3-4c1.3-1.2,2.5-2.3,3.8-3.5c1.2-1.2,2.3-1.7,3.3-1.7
	c0.1,0,0.4,0.1,0.8,0.3c0.4,0.2,0.9,0.3,1.3,0.3c0.9,0,1.3-0.4,1.2-1.2C403.3,318.2,403,317.8,402.2,317.3 M383.7,306.1
	c0-0.7-0.2-1.3-0.7-1.7c-0.5-0.4-1-0.6-1.5-0.6c-0.7,0-1.1,0.3-1.2,1c-0.2,2.2-0.6,4.4-1.1,6.8c-0.3,1.6-0.7,3.1-1.2,4.4
	c-0.1,0.2-0.1,0.5-0.1,0.8c0,0.9,0.3,1.3,1.1,1.3c0.4,0,0.8-0.2,1-0.5c0.5-1,1.3-2.9,2.2-5.7c0.7-2.3,1.3-4,1.5-5.2
	C383.7,306.6,383.7,306.4,383.7,306.1 M359.9,327.4c-0.9,0.6-2.3,1.2-4,1.8c-0.6,0.2-1.3,0.4-2.4,0.6c0.6-0.6,1-1.1,1.3-1.4
	c1.1-1,2.1-1.8,3-2.2c1.5-0.8,2.9-1.3,4.3-1.5c0.5-0.1,1.1-0.1,1.8-0.1C362.6,325.5,361.3,326.5,359.9,327.4 M373.6,332.6
	c-0.4,0-0.8,0.3-1.2,0.8c-0.1,0.2-0.4,0.6-0.7,1.2c-0.6,0.8-2.4,2.2-5.3,4.3c-3.6,2.4-6.3,3.7-8.2,3.7c-1.1,0-2-0.3-2.8-0.8
	c-0.7-0.5-1.4-1.2-1.9-2.2c-0.6-0.8-0.9-1.6-1.2-2.4c-0.2-0.8-0.3-1.5-0.3-2.2c0-0.4,0.1-0.9,0.2-1.5c0-0.2,0-0.3,0.1-0.5
	c2.2-0.7,3.5-1.1,3.7-1.2c2.2-0.7,3.8-1.4,4.9-2c2.1-1.2,4-2.5,5.8-3.9c0.7-0.8,1.5-1.7,2.2-2.5c-1.4-1-3.1-1.5-5.2-1.5
	c-3.2,0-6.4,1-9.4,3.1c-3.1,2.1-4.9,4.6-5.5,7.6c-0.1,0.6-0.2,0.9-0.2,1c0,0.3-0.1,0.7-0.1,1c0,2.1,0.6,4.2,1.8,6.1
	c1.2,1.9,2.7,3.3,4.5,4.2c0.8,0.3,1.6,0.5,2.5,0.5c2.1,0,4.7-0.9,7.8-2.7c2.8-1.7,5.8-3.7,8.8-6.2c0.9-0.6,1.3-1.3,1.3-2.1
	c0-0.6-0.3-1.1-0.8-1.5C374.1,332.7,373.8,332.6,373.6,332.6 M348.1,321c-0.3,0-0.7-0.1-1.2-0.1c-1.5,0-2.9,0.5-4.4,1.6
	c-0.6,0.5-1.7,1.4-3.3,2.9c-1.6,1.5-3.3,3.3-5.2,5.6c-0.6,0.7-1.4,1.7-2.4,3l-0.1-6.8c0-1.6-0.1-2.8-0.2-3.7
	c-0.2-0.8-0.4-1.5-0.8-1.8c-0.4-0.4-0.8-0.6-1.2-0.6c-0.3,0-0.7,0.1-1.1,0.4c-0.2,0.1-0.4,0.4-0.6,0.6c0.2,1.3,0.4,2.9,0.6,4.6
	c0.2,1.8,0.4,4.6,0.4,8.3c0,1.4-0.1,2.8-0.3,4.3c-0.2,1.5-0.4,3.1-0.6,4.8c0,0.6,0.1,1.1,0.4,1.3c0.4,0.5,1,0.7,1.5,0.7
	c0.5,0,0.9-0.2,1.2-0.6c0.2-0.2,0.3-1.3,0.6-3.4c0.2-2.1,0.7-3.8,1.5-5c2.2-3.3,4.2-6,6.1-8c2.1-2.3,4-4,5.7-4.9
	c0.5-0.3,1-0.4,1.5-0.4c0.3,0,0.7,0.1,1.2,0.3c0.5,0.2,1,0.2,1.3,0.2c0.9-0.3,1.3-0.7,1.3-1.4c0-0.3-0.1-0.6-0.3-0.9
	c-0.2-0.3-0.4-0.5-0.5-0.5C348.9,321.1,348.4,321,348.1,321 M325.5,324.1c-0.3-0.8-0.7-1.1-1.4-1.1c-0.8,0-1.3,0.2-1.5,0.6
	c-0.2,0.4-0.3,0.9-0.3,1.5c0,1.5-0.3,3.6-0.8,6.5c-0.8,3.9-1.8,6.9-3,9c-0.4,0.6-0.8,1-1.1,1c-1,0-1.9-1.8-2.7-5.4
	c-0.8-3.6-1.1-7.9-1.1-13c0-0.5-0.1-0.9-0.3-1.3c-0.2-0.4-0.7-0.7-1.3-0.8c-0.9-0.2-1.4,0.5-1.4,2c0,6.1,0.6,11.3,1.7,15.6
	c1.2,4.3,2.8,6.4,5,6.4c0.6,0,1.2-0.1,1.9-0.4c1.1-0.5,2.3-2.6,3.5-6.3c1.5-4.4,2.5-8.7,3.1-13C325.7,324.7,325.6,324.3,325.5,324.1
	 M310.2,320c-0.6-0.2-1.4-0.3-2.4-0.3c-1.9,0-4,0.1-6.2,0.3c-0.7,0.1-1.6,0.2-2.7,0.3c0.1-0.5,0.3-1.8,0.7-4.1
	c0.2-1.2,0.3-2.4,0.5-3.7c0.1-1.3,0.2-2.3,0.2-3.1c0-1.5-0.1-2.5-0.5-3.1c-0.3-0.6-0.7-0.9-1.3-0.9c-0.5,0-0.9,0.2-1,0.6
	c-0.2,0.4-0.3,1-0.3,1.7c0,0.1,0,0.5,0.1,1c0,0.5,0.1,0.9,0.1,1.1c0,2.7-0.2,5.4-0.7,8c-0.1,0.9-0.4,1.9-0.7,3.1
	c-1.7,0.4-2.9,0.8-3.5,1c-0.6,0.2-1.9,0.7-3.8,1.4c-1.5,0.6-2.4,1-2.8,1.4c-0.3,0.2-0.5,0.6-0.7,1.1c-0.1,0.5,0,0.9,0.3,1.2
	c0.4,0.4,0.8,0.6,1.4,0.8c0.2,0,0.8-0.3,1.7-1c0.7-0.5,1.4-0.9,2.1-1.2c1-0.4,2-0.8,3.1-1.2c0.4-0.1,1-0.2,1.6-0.4
	c-0.1,1-0.3,2.3-0.4,3.7c-0.2,1.4-0.3,2.7-0.5,3.9c-0.3,2.8-0.5,4.9-0.5,6.3c-0.1,1.4-0.1,3.3-0.1,5.4c0,0.9,0.2,1.7,0.5,2.2
	c0.4,0.6,0.8,0.8,1.4,0.8c0.6,0,1-0.1,1.2-0.4c0.2-0.3,0.3-0.6,0.3-1c0-0.2,0-0.5-0.1-0.9c-0.1-0.4-0.1-0.7-0.1-0.7
	c0-1.9,0.1-4.4,0.3-7.7c0.2-3.3,0.4-6.2,0.6-8.8c0.1-1.2,0.2-2.3,0.3-3.5c1.5-0.3,2.8-0.6,4.2-0.8c1.9-0.3,3.7-0.4,5.2-0.4
	c0.3,0,0.6,0.1,0.9,0.1c0.3,0,0.6,0.1,1,0.1c0.4,0,0.8-0.1,1-0.3c0.2-0.2,0.4-0.5,0.4-0.9C311.1,320.6,310.8,320.2,310.2,320
	 M276.5,342c-1.7,1-3.1,1.5-4.3,1.5c-0.5,0-1-0.1-1.4-0.3c-0.4-0.2-0.6-0.8-0.6-1.7c0-1.2,0.4-2.4,1.1-3.5c0.9-1.3,2.2-2.1,3.8-2.4
	c0.8-0.1,1.6,0.6,2.5,2.2c0.3,0.5,0.6,1.4,1,2.5C277.7,341.1,277,341.6,276.5,342 M283.3,340.8c0.7-2.5,1-5.1,1-7.7
	c0-2.5-0.4-4.6-1.1-6.5c-0.8-2.2-2.1-3.8-3.9-4.9c-0.8-0.5-1.9-0.8-3.1-0.8c-1.7,0-3.3,0.4-4.7,1.3c-1.5,0.8-2.2,1.7-2.2,2.7
	c0,0.4,0.2,0.7,0.6,0.9c0.4,0.2,0.7,0.4,1,0.4c0.3,0,0.5-0.1,0.5-0.3c0-0.4,0.5-0.9,1.5-1.4c1-0.5,2-0.8,3-0.8
	c0.8,0,1.5,0.2,2.1,0.5c0.6,0.4,1.2,1,1.6,1.8c0.7,1.3,1.1,2.5,1.4,3.7c0.3,1.1,0.4,2.3,0.4,3.6c0,1.2-0.1,2.4-0.5,3.7
	c-0.1,0.4-0.2,0.8-0.4,1.4c-0.7-2.1-1.5-3.5-2.4-4.2c-0.9-0.7-1.9-1.1-3-1.1c-0.3,0-0.5,0-0.7,0.1c-1.8,0.3-3.4,1.3-4.8,3.2
	c-1.4,1.9-2.1,3.7-2.1,5.6c0,1.4,0.4,2.4,1.2,3.2c0.8,0.8,1.9,1.2,3.3,1.2c1.5,0,3.1-0.5,5.1-1.4c0.6-0.3,1.4-0.8,2.4-1.4
	c0,0.1,0.1,0.4,0.1,0.6c0.1,0.3,0.2,0.5,0.4,0.8c0.2,0.2,0.6,0.4,1.1,0.4c0.4,0,0.6-0.1,0.7-0.2
	C282.1,344.7,282.6,343.3,283.3,340.8 M262.7,338.3c0-0.1-0.1-0.4-0.3-0.6c-0.4-3-0.6-5.6-0.6-7.6c0-0.6,0.1-2.3,0.3-5.2
	c0-0.6,0.1-1.4,0.1-2.5c0.1-1.9,0.2-3.7,0.3-5.3c0.1-1.6,0.2-3.2,0.2-4.9c0-2-0.2-3.6-0.5-4.8c-0.3-1.2-0.8-1.8-1.5-1.8
	c-1.3,0-1.9,0.7-1.9,2.2c0,0.5,0.1,1.5,0.2,2.9c0.1,1.4,0.2,2.7,0.2,3.8v8.3v7.9v5.8c-0.3,0-0.7-0.1-1-0.3c-0.3-0.2-0.7-0.5-1.3-0.8
	c-0.9-0.6-2.1-1.9-3.5-3.9c-1.6-2.3-3.5-5.2-5.6-8.8c-1-1.8-2-4-2.9-6.6c-1.8-4.9-3-7.8-3.5-8.8c-0.3-0.5-0.7-0.8-1.2-0.8
	c-0.6,0-1.1,0.3-1.6,1c-0.3,0.4-0.5,2.7-0.6,6.9c-0.2,4.2-0.3,6.9-0.5,8.1c-0.3,2.1-0.7,5.6-1.1,10.5c-0.4,4.9-0.6,8.9-0.6,11.8
	c0,1.7,0.1,2.7,0.3,2.8c0.6,0.3,1,0.5,1.4,0.5c0.6,0,1-0.3,1.3-1c0.3-0.7,0.4-1.4,0.4-2.3c0-1.4-0.2-2.4-0.6-2.8
	c-0.1-0.1-0.2-0.7-0.2-1.6c0-1.5,0.2-4.3,0.7-8.5c0.5-4.2,1-7.9,1.4-11.1c0.2-1.7,0.5-3.4,0.7-5.2c0.8,1.9,1.7,3.7,2.5,5.4
	c1,2.1,2,3.7,2.8,5.1c1.9,3,3.6,5.5,5.1,7.5c2.1,3,3.7,4.7,4.7,5.3l3,1.9c0,0.3-0.1,0.5-0.1,0.6c0,0.3-0.1,0.5-0.1,0.8
	c0,0.7,0.1,1.3,0.4,1.7c0.2,0.5,0.7,0.8,1.3,0.9c0.5,0.1,0.9-0.1,1.2-0.4c0.3-0.3,0.4-1,0.4-1.9c0-0.2,0-0.5-0.1-0.8
	c0-0.3-0.1-0.5-0.1-0.6c0.3-0.4,0.5-1,0.5-1.9C263,339.1,262.9,338.7,262.7,338.3 M198.9,354.6c0,3.6-1.5,7.7-4.4,12.4
	c-1.1,1.8-2.7,3.3-4.6,4.6c-1.9,1.3-3.9,1.9-5.9,1.9c-1.7,0-3.3-0.5-4.7-1.6c-2.1-1.6-3.1-3.4-3.1-5.4s1-4.3,3.1-6.9
	c2.1-2.5,4.7-4.7,8-6.5c2.3-1.2,4.8-2.2,7.4-3c1.8-0.5,2.8-0.7,3.3-0.7C198.6,351.2,198.9,352.9,198.9,354.6 M193.1,335.7
	c-1.3,1.4-3.1,2.6-5.5,3.6c-0.8,0.3-1.6,0.6-2.6,0.8c-0.3,0.1-0.8,0.2-1.3,0.3c-0.1-0.2-0.2-0.4-0.2-0.5c-0.2-0.7-0.3-1.4-0.3-2
	c0.1-0.8,0.6-2,1.6-3.5c1.3-2.1,3.1-4.1,5.4-6.2c0.8,0.2,1.4,0.4,1.9,0.7c1.3,0.7,2.1,1.9,2.4,3.5
	C194.6,333.5,194.1,334.5,193.1,335.7 M214.4,346.2c-1.1-0.2-2.7-0.3-4.8-0.3c-1.7,0-3.8,0.1-6.5,0.3c-0.9,0-2,0.1-3.4,0.3
	c-0.9-1.3-1.4-2.1-1.6-2.3c-0.6-0.7-1.4-1.3-2.4-2c-0.8-0.6-1.7-1.1-2.7-1.5c-0.3-0.1-0.7-0.2-1.2-0.3c1.8-1.5,3.1-2.6,3.8-3.4
	c1-1.3,1.5-2.6,1.5-4c0-0.3,0-0.7-0.1-1.3c-0.1-0.6-0.6-1.5-1.5-2.6c-0.3-0.4-0.7-0.8-1.3-1.4l4.2-0.7c1.4-0.3,2.5-0.4,3.5-0.4
	c0.7,0,1.3,0,1.7,0.1c0.4,0,0.7,0,0.8,0c0.5-0.4,0.7-0.7,0.7-1.1c0-0.5-0.5-0.9-1.3-1.1c-0.3-0.1-0.6-0.1-1-0.1
	c-1.1,0-3.5,0.2-7.1,0.7c-3.7,0.4-6,0.7-7.1,0.7c-0.7,0-1.1-0.1-1.3-0.2c-0.4-0.3-0.8-0.5-1.1-0.5c-0.4,0-0.7,0.1-0.9,0.4
	c-0.2,0.3-0.3,0.6-0.4,1c0,0.3,0.3,0.7,0.8,1.2c0.1,0.1,0.4,0.3,0.8,0.6c-0.9,1.1-2.2,2.6-3.7,4.4c-1.7,2.1-2.6,3.8-2.6,5.1
	c0,0.8,0.1,1.6,0.3,2.5c0.1,0.3,0.2,0.6,0.3,1.1c-0.3,0.1-0.8,0.3-1.3,0.4c-0.4,0.2-0.7,0.4-0.9,0.7c-0.2,0.3-0.3,0.6-0.3,0.8
	c0,0.5,0.3,0.9,1,1.2c0.3,0.2,0.6,0.2,0.9,0.2c1.5-0.4,3-0.8,4.5-1.3c1.6-0.4,3.3-0.6,5.2-0.6c1.9,0,3.7,0.7,5.2,2.1
	c0.5,0.5,1,1.1,1.6,2.1c-4.6,1.1-8.1,2.2-10.5,3.4c-3.2,1.6-6.3,4.1-9.4,7.5c-1.3,1.4-2.2,2.9-2.8,4.3c-0.6,1.5-0.9,2.9-0.9,4.3
	c0,3.4,1.5,6.1,4.5,8c1.1,0.7,2.2,1.2,3.2,1.5c1.1,0.3,2.1,0.4,3.2,0.4c3,0,5.8-1.1,8.7-3.4c2.3-1.9,4.1-4.1,5.4-6.7
	c1.3-2.6,2.2-5,2.8-7.4c0.5-1.8,0.7-3.6,0.7-5.4c0-1.5-0.2-2.8-0.6-4.1c0-0.2-0.1-0.4-0.2-0.7c0.9-0.1,1.9-0.3,3-0.4
	c1.1-0.1,2-0.2,2.9-0.2c1.3,0,2.4-0.1,3.3-0.1h2.4c0.2,0.3,0.4,0.7,0.6,1c0.2,0.3,0.7,0.5,1.4,0.5c1,0,1.8-0.1,2.6-0.4
	c0.7-0.2,1-0.6,0.7-1.2C217.3,347.3,216.2,346.6,214.4,346.2 M177.1,346.6c0-0.4-0.1-0.9-0.3-1.5c-0.1-0.2-0.3-0.7-0.6-1.3
	c-0.1-0.3-0.2-2.9-0.2-7.9c0-5.1-0.1-8.6-0.4-10.6c-0.4-2.8-1.2-4.4-2.5-4.7c-1.5-0.3-3.5,1.8-6.2,6.2c-0.9,1.5-2,3.7-3.5,6.7
	c0-0.2-0.1-0.5-0.1-0.8c0-0.2,0-0.6,0.1-1.2c0-0.7,0.1-1.4,0.1-2c0-1.3,0.1-2.6,0.3-4.1c0.2-1.5,0.3-2.3,0.3-2.6
	c0-0.4-0.1-0.7-0.2-0.9c-0.5-0.6-1-0.9-1.8-0.9c-0.7,0-1.1,0.4-1.2,1.3c-0.3,1.8-0.4,2.9-0.4,3.4c-0.2,2-0.3,4.2-0.3,6.7
	c0,1.6,0,3.5-0.1,5.5c-0.1,2-0.2,4-0.3,5.8c0,0.7,0.1,1.3,0.4,1.7c0.3,0.4,0.7,0.6,1.2,0.6c0.3,0,0.7-0.1,1-0.3
	c0.3-0.2,0.6-0.8,0.9-1.8c0.5-1.9,1-3.5,1.5-4.8c1.3-3.6,2.8-7,4.6-10.2c1.1-1.4,2.2-2.9,3.3-4.3c0.3,0.3,0.5,1.1,0.5,2.3
	c0,1.2,0,2.3,0,3.2v3.7c0,1.4,0.1,3.1,0.2,5c0.1,1.9,0.2,3.6,0.4,5.2c0,0.3,0,0.6-0.1,0.7c-0.1,0.2-0.1,0.5-0.1,0.8
	c0,0.7,0.3,1.3,0.8,1.8c0.5,0.5,1.1,0.7,1.7,0.7c0.3,0,0.6-0.1,0.8-0.3C177,347.5,177.1,347.1,177.1,346.6 M153.3,322.2
	c-0.9,0-1.4,0.5-1.5,1.5c-0.2,1-0.3,2.6-0.3,4.9c0,1.5-0.1,3.9-0.2,7.4c-0.1,3.5-0.2,5.4-0.2,5.6c0,0.3,0,0.7,0.1,1.4
	c0.1,0.7,0.2,1.1,0.5,1.3c0.4,0.3,0.8,0.5,1.3,0.5c0.8,0,1.2-0.3,1.3-0.8c0.1-0.5,0.2-0.8,0.2-1.2c-0.2-0.6-0.4-1.2-0.5-1.9
	c-0.1-0.7-0.2-1.5-0.2-2.7c0-0.8,0.2-3.2,0.7-7.1c0.4-3.9,0.7-6,0.7-6.4C155.2,323.1,154.6,322.2,153.3,322.2 M155,304.6
	c-0.3-0.3-0.6-0.5-1.1-0.5c-0.6,0-1,0.3-1.2,0.8c-0.2,0.5-0.5,1.5-1,2.9c-0.6,1.3-1,2.5-1,3.7c0,0.9,0.2,1.4,0.5,1.7
	c0.2,0.2,0.4,0.2,0.5,0.2c0.4,0,0.8-0.2,1.1-0.6c0.2-0.2,0.4-0.7,0.5-1.5c0.1-0.8,0.3-1.4,0.5-2c0.2-0.5,0.5-1.2,1-2
	c0.4-0.8,0.6-1.3,0.6-1.6C155.4,305.4,155.3,304.9,155,304.6 M150.7,339.7c-0.4-0.2-0.7-0.4-1.2-0.4c-0.7,0-1.2,0.2-1.5,0.7
	c-0.3,0.5-0.8,0.9-1.7,1.3c-1.1,0.6-2.5,0.8-4,0.8c-1.1,0-2.2-0.1-3.4-0.4c-1.2-0.3-2.6-0.7-4-1.4c-4-1.8-7.4-3.9-10.4-6.2
	c-1-0.8-2.1-1.8-3.3-3c4.3-1.8,8.4-3.2,12.2-4.2c3.8-1,7.1-1.8,9.7-2.3c0.5-0.3,0.7-0.8,0.7-1.3c0-0.3-0.1-0.6-0.3-0.8
	c-0.2-0.2-0.4-0.4-0.5-0.4c-1.5,0-4.2,0.5-8,1.5c-2.8,0.7-5.9,1.6-9.4,2.8c-1.5,0.5-3,1-4.5,1.5c0.1-1.1,0.4-2.6,0.7-4.5
	c0.1-0.6,0.3-1.6,0.6-3.1c0.5-2.5,1-4.6,1.7-6.4c0.7-1.8,0.9-2.9,0.9-3.2c-0.3-1.1-0.9-1.7-1.7-1.7c-0.1,0-0.4,0.1-0.8,0.2
	c-0.4,0.1-1,1.7-1.9,4.7c-0.9,3.5-1.7,7.3-2.4,11.5c-0.8,5.3-1.2,10.4-1.2,15.3c0,5.7,0.5,8.5,1.5,8.5c0.8,0,1.4-0.1,1.7-0.4
	c0.3-0.2,0.5-0.6,0.5-1.1c0-0.2-0.2-1-0.5-2.6c-0.1-0.7-0.2-1.3-0.2-1.9c0-2,0.1-4.2,0.3-6.4c0-0.6,0.1-1.4,0.3-2.3
	c3.9,3.4,7.7,5.9,11.4,7.7c3.7,1.7,7,2.6,10,2.6c1.3,0,2.5-0.2,3.7-0.5c1-0.4,2-0.8,2.9-1.2c0.9-0.4,1.6-0.7,1.9-1
	c0.5-0.4,0.7-0.9,0.7-1.5C151.2,340.3,151,340,150.7,339.7 M118,333.9c-0.2-0.3-0.6-0.5-0.9-0.5c-0.1,0-0.3,0-0.5,0.1
	c-1.4,0.8-2.8,1.6-4.2,2.4c-3.2,1.8-6,3.3-8.5,4.3c-3.6,1.5-6.4,2.3-8.5,2.3c-1.1,0-2-0.2-2.6-0.6c-1.1-0.7-1.7-1.8-1.7-3.1
	c0-2.2,1.3-4.9,3.8-8.1c2.2-2.8,3.8-4.3,4.8-4.6c0.3-0.1,0.8-0.1,1.3,0c0.6,0.1,0.9,0.2,1,0.2c0.2,0,0.4-0.1,0.6-0.2
	c1-0.7,1.6-1.5,1.6-2.5c0-0.9-0.6-1.4-1.9-1.4c-0.4,0-0.7,0-1,0.1c-2.5,0.4-5.4,2.5-8.6,6.4c-3.2,3.9-4.8,7.4-4.8,10.6
	c0,1.3,0.3,2.4,1,3.3c0.7,0.9,1.6,1.5,2.6,1.9c1,0.4,2.2,0.6,3.5,0.6c2.7,0,6.1-0.9,10.1-2.6c3-1.3,6-2.9,9-4.8
	c2.6-1.7,3.9-2.6,3.9-2.9C118.4,334.5,118.3,334.2,118,333.9 M82.8,331.6c0,1-0.1,1.9-0.4,2.8c-0.3,0.9-0.7,1.9-1.2,3
	c-0.5,1.1-1.6,2.2-3.1,3.3c-1.5,1.1-2.8,1.7-4,1.7c-0.3,0-0.7-0.1-1-0.2c-0.9-0.3-1.6-1-2.1-2.1c-0.5-1-0.7-2.2-0.7-3.4
	c0-0.9,0.1-1.6,0.3-2.2c1-2.8,2.2-5.1,3.7-6.7c0.9-1,2.2-1.8,3.8-2.4l-0.1-0.3c1.2,0.2,2,0.5,2.6,1c0.5,0.4,0.9,1.1,1.3,2
	C82.6,329.3,82.8,330.4,82.8,331.6 M82,323.9c-1.4-1-2.8-1.6-4.4-1.6c-1.5,0-3.1,0.8-4.7,2.5c-1.6,1.7-3.1,4.2-4.6,7.6
	c-0.3,0.8-0.6,1.5-0.7,2.2c-0.1,0.7-0.2,1.5-0.2,2.1c0,1.8,0.4,3.6,1.3,5.2c0.8,1.4,1.6,2.4,2.7,3c0.6,0.3,1.3,0.5,2.1,0.5
	c2.7,0,5.3-1.2,7.9-3.5c2.9-2.7,4.3-5.8,4.3-9.5v-1c0-0.3,0-0.7-0.1-1C85.1,327.5,83.9,325.3,82,323.9 M64.5,304.2
	c-0.4,0-0.7,0.1-1.1,0.5c-0.4,0.3-0.7,1.8-0.9,4.4c-0.2,2.6-0.5,5.4-0.8,8.4c-0.6,6.6-1,10.8-1.1,12.6c-0.4,5.4-0.6,9.6-0.6,12.7
	c0,1.4,0.1,2.5,0.2,3.5c0.1,0.9,0.3,1.5,0.5,1.6c0.5,0.4,1,0.6,1.3,0.6c0.5,0,0.8-0.3,1-0.8c0.2-0.6,0.3-1.5,0.3-2.9v-3
	c0-3.2,0-6.2,0.1-8.9c0.1-2.7,0.3-5.5,0.7-8.5c0.4-3,0.9-7.1,1.7-12.4c0.4-2.8,0.6-4.6,0.6-5.3c0-0.7-0.1-1.2-0.4-1.5
	C65.5,304.5,65,304.2,64.5,304.2 M56.4,346.6c0-0.4-0.1-0.9-0.3-1.5c-0.1-0.2-0.3-0.7-0.6-1.3c-0.1-0.3-0.2-2.9-0.2-7.9
	c0-5.1-0.1-8.6-0.4-10.6c-0.4-2.8-1.2-4.4-2.5-4.7c-1.5-0.3-3.5,1.8-6.2,6.2c-0.9,1.5-2,3.7-3.5,6.7c0-0.2-0.1-0.5-0.1-0.8
	c0-0.2,0-0.6,0.1-1.2c0-0.7,0.1-1.4,0.1-2c0-1.3,0.1-2.6,0.3-4.1c0.2-1.5,0.3-2.3,0.3-2.6c0-0.4-0.1-0.7-0.2-0.9
	c-0.4-0.6-1-0.9-1.8-0.9c-0.7,0-1.1,0.4-1.2,1.3c-0.3,1.8-0.4,2.9-0.4,3.4c-0.2,2-0.3,4.2-0.3,6.7c0,1.6,0,3.5-0.1,5.5
	c-0.1,2-0.2,4-0.3,5.8c0,0.7,0.1,1.3,0.4,1.7c0.3,0.4,0.7,0.6,1.2,0.6c0.3,0,0.7-0.1,1-0.3c0.3-0.2,0.6-0.8,0.9-1.8
	c0.5-1.9,1-3.5,1.5-4.8c1.3-3.6,2.8-7,4.5-10.2c1.1-1.4,2.2-2.9,3.3-4.3c0.3,0.3,0.5,1.1,0.5,2.3c0,1.2,0,2.3,0,3.2v3.7
	c0,1.4,0.1,3.1,0.2,5c0.1,1.9,0.2,3.6,0.4,5.2c0,0.3,0,0.6-0.1,0.7c-0.1,0.2-0.1,0.5-0.1,0.8c0,0.7,0.3,1.3,0.8,1.8
	c0.5,0.5,1.1,0.7,1.7,0.7c0.3,0,0.6-0.1,0.8-0.3C56.3,347.5,56.4,347.1,56.4,346.6 M37.2,308.8c0.1-0.5,0.2-0.9,0.2-1.3
	c0-0.7-0.2-1.3-0.6-1.6c-0.4-0.4-1.2-0.6-2.2-0.6c-0.6,0-1.1,0.2-1.3,0.6c-0.2,0.4-0.3,1-0.3,1.8c0,0.3,0,0.8,0.1,1.6
	c0.1,0.8,0.1,1.3,0.1,1.5c0,2.2-0.8,5.5-2.2,10c-1.8,5.5-4.1,10-6.7,13.7c-3.4,4.7-7.2,7.2-11.3,7.6c-1.9,0.2-3.7-1.5-5.3-5.1
	c-1.6-3.6-2.4-7.2-2.4-10.8c0-2.7,0.1-5.4,0.2-8.1c0.1-2.7,0.3-5.3,0.5-7.6c0-0.8-0.1-1.3-0.3-1.5c-0.2-0.2-0.6-0.4-1.2-0.5
	c-1.3,0-2.1,0.5-2.5,1.5c-0.4,1-0.5,3-0.5,6.1c0,1.1,0,2.3,0,3.6c0,1.3,0,2.6,0,4c0,5.3,1,10.3,2.9,14.9c2,4.6,4.3,7,7.1,7
	c4.8,0,9.3-2.2,13.3-6.7c3.3-3.6,6.1-8.5,8.5-14.5c1.9-4.9,3.2-9.6,3.8-14.1C37,309.8,37.1,309.3,37.2,308.8"/>
</svg>
